<svg id="php-charts-column-line-mixed-chart-grouped-stacked" xmlns="http://www.w3.org/2000/svg" width="900" height="400" viewBox="0 0 900 400" class="php-svg-charts"><g data-renderer-id="background"><rect data-renderer-id="rect" x="0" y="0" width="100%" height="100%" fill="white"/></g>
<g data-renderer-id="grid"><line data-renderer-id="line" x1="73.69" y1="330" x2="890" y2="330" stroke="#ccc" stroke-width="1" shape-rendering="crispEdges"/><line data-renderer-id="line" x1="73.69" y1="266" x2="890" y2="266" stroke="#ccc" stroke-width="1" shape-rendering="crispEdges"/><line data-renderer-id="line" x1="73.69" y1="202" x2="890" y2="202" stroke="#ccc" stroke-width="1" shape-rendering="crispEdges"/><line data-renderer-id="line" x1="73.69" y1="138" x2="890" y2="138" stroke="#ccc" stroke-width="1" shape-rendering="crispEdges"/><line data-renderer-id="line" x1="73.69" y1="74" x2="890" y2="74" stroke="#ccc" stroke-width="1" shape-rendering="crispEdges"/><line data-renderer-id="line" x1="73.69" y1="10" x2="890" y2="10" stroke="#ccc" stroke-width="1" shape-rendering="crispEdges"/></g>
<g data-renderer-id="lianco-lianco"><g data-renderer-id="axis"><g data-renderer-id="xaxis"><g data-renderer-id="textrect"><text x="449.715" y="387.125" text-rendering="optimizeLegibility" dominant-baseline="alphabetic" alignment-baseline="auto" fill="black" font-family="arial" font-size="14">Time</text></g><line data-renderer-id="line" x1="190.30571428571" y1="330" x2="190.30571428571" y2="335" fill="black" stroke="black" stroke-width="1" shape-rendering="crispEdges"/><g data-renderer-id="textrect"><text x="186.30571428571" y="354" text-rendering="optimizeLegibility" dominant-baseline="alphabetic" alignment-baseline="auto" fill="black" font-family="arial" font-size="14">0</text></g><line data-renderer-id="line" x1="326.35738095238" y1="330" x2="326.35738095238" y2="335" fill="black" stroke="black" stroke-width="1" shape-rendering="crispEdges"/><g data-renderer-id="textrect"><text x="322.45738095238" y="354" text-rendering="optimizeLegibility" dominant-baseline="alphabetic" alignment-baseline="auto" fill="black" font-family="arial" font-size="14">1</text></g><line data-renderer-id="line" x1="462.40904761905" y1="330" x2="462.40904761905" y2="335" fill="black" stroke="black" stroke-width="1" shape-rendering="crispEdges"/><g data-renderer-id="textrect"><text x="458.40904761905" y="354" text-rendering="optimizeLegibility" dominant-baseline="alphabetic" alignment-baseline="auto" fill="black" font-family="arial" font-size="14">2</text></g><line data-renderer-id="line" x1="598.46071428571" y1="330" x2="598.46071428571" y2="335" fill="black" stroke="black" stroke-width="1" shape-rendering="crispEdges"/><g data-renderer-id="textrect"><text x="594.46071428571" y="354" text-rendering="optimizeLegibility" dominant-baseline="alphabetic" alignment-baseline="auto" fill="black" font-family="arial" font-size="14">3</text></g><line data-renderer-id="line" x1="734.51238095238" y1="330" x2="734.51238095238" y2="335" fill="black" stroke="black" stroke-width="1" shape-rendering="crispEdges"/><g data-renderer-id="textrect"><text x="730.51238095238" y="354" text-rendering="optimizeLegibility" dominant-baseline="alphabetic" alignment-baseline="auto" fill="black" font-family="arial" font-size="14">4</text></g><line data-renderer-id="line" x1="73.69" y1="330" x2="890" y2="330" fill="black" stroke="black" stroke-width="1" shape-rendering="crispEdges"/></g><g data-renderer-id="yaxis"><g data-renderer-id="textrect"><text text-anchor="end" x="63.69" y="334.625" text-rendering="optimizeLegibility" dominant-baseline="alphabetic" alignment-baseline="auto" fill="black" font-family="arial" font-size="14">0.00</text></g><g data-renderer-id="textrect"><text text-anchor="end" x="63.69" y="270.625" text-rendering="optimizeLegibility" dominant-baseline="alphabetic" alignment-baseline="auto" fill="black" font-family="arial" font-size="14">43.00</text></g><g data-renderer-id="textrect"><text text-anchor="end" x="63.69" y="206.625" text-rendering="optimizeLegibility" dominant-baseline="alphabetic" alignment-baseline="auto" fill="black" font-family="arial" font-size="14">86.00</text></g><g data-renderer-id="textrect"><text text-anchor="end" x="63.69" y="142.625" text-rendering="optimizeLegibility" dominant-baseline="alphabetic" alignment-baseline="auto" fill="black" font-family="arial" font-size="14">129.00</text></g><g data-renderer-id="textrect"><text text-anchor="end" x="63.69" y="78.625" text-rendering="optimizeLegibility" dominant-baseline="alphabetic" alignment-baseline="auto" fill="black" font-family="arial" font-size="14">172.00</text></g><g data-renderer-id="textrect"><text text-anchor="end" x="63.69" y="14.625" text-rendering="optimizeLegibility" dominant-baseline="alphabetic" alignment-baseline="auto" fill="black" font-family="arial" font-size="14">215.00</text></g><g transform="rotate(90, 10, 170)" data-renderer-id="textrect"><text text-anchor="middle" x="10" y="174.625" text-rendering="optimizeLegibility" dominant-baseline="alphabetic" alignment-baseline="auto" fill="black" font-family="arial" font-size="14">Awesome lines</text></g></g></g><g data-renderer-id="series"><g data-renderer-id="series-data"><line data-renderer-id="line" x1="73.69" y1="330" x2="890" y2="330" stroke="black" stroke-width="1" shape-rendering="crispEdges"/><rect data-renderer-id="rect" x="153.34983928571" y="322.55813953488" width="20.15775" height="7.4418604651163" rx="0" fill="hsl(0, 100%, 45%)"/><rect data-renderer-id="rect" x="153.34983928571" y="277.90697674419" width="20.15775" height="44.651162790698" rx="0" fill="hsl(30, 100%, 45%)"/><rect data-renderer-id="rect" x="153.34983928571" y="248.13953488372" width="20.15775" height="29.767441860465" rx="0" fill="hsl(60, 100%, 45%)"/><rect data-renderer-id="rect" x="180.22683928571" y="322.55813953488" width="20.15775" height="7.4418604651163" rx="0" fill="hsl(90, 100%, 45%)"/><rect data-renderer-id="rect" x="180.22683928571" y="277.90697674419" width="20.15775" height="44.651162790698" rx="0" fill="hsl(120, 100%, 45%)"/><rect data-renderer-id="rect" x="180.22683928571" y="248.13953488372" width="20.15775" height="29.767441860465" rx="0" fill="hsl(150, 100%, 45%)"/><rect data-renderer-id="rect" x="207.10383928571" y="322.55813953488" width="20.15775" height="7.4418604651163" rx="0" fill="hsl(180, 100%, 45%)"/><rect data-renderer-id="rect" x="207.10383928571" y="277.90697674419" width="20.15775" height="44.651162790698" rx="0" fill="hsl(210, 100%, 45%)"/><rect data-renderer-id="rect" x="207.10383928571" y="248.13953488372" width="20.15775" height="29.767441860465" rx="0" fill="hsl(240, 100%, 45%)"/><rect data-renderer-id="rect" x="289.40150595238" y="328.51162790698" width="20.15775" height="1.4883720930233" rx="0" fill="hsl(0, 100%, 45%)"/><rect data-renderer-id="rect" x="289.40150595238" y="298.74418604651" width="20.15775" height="29.767441860465" rx="0" fill="hsl(30, 100%, 45%)"/><rect data-renderer-id="rect" x="289.40150595238" y="200.51162790698" width="20.15775" height="98.232558139535" rx="0" fill="hsl(60, 100%, 45%)"/><rect data-renderer-id="rect" x="316.27850595238" y="328.51162790698" width="20.15775" height="1.4883720930233" rx="0" fill="hsl(90, 100%, 45%)"/><rect data-renderer-id="rect" x="316.27850595238" y="298.74418604651" width="20.15775" height="29.767441860465" rx="0" fill="hsl(120, 100%, 45%)"/><rect data-renderer-id="rect" x="316.27850595238" y="200.51162790698" width="20.15775" height="98.232558139535" rx="0" fill="hsl(150, 100%, 45%)"/><rect data-renderer-id="rect" x="343.15550595238" y="328.51162790698" width="20.15775" height="1.4883720930233" rx="0" fill="hsl(180, 100%, 45%)"/><rect data-renderer-id="rect" x="343.15550595238" y="298.74418604651" width="20.15775" height="29.767441860465" rx="0" fill="hsl(210, 100%, 45%)"/><rect data-renderer-id="rect" x="343.15550595238" y="200.51162790698" width="20.15775" height="98.232558139535" rx="0" fill="hsl(240, 100%, 45%)"/><rect data-renderer-id="rect" x="425.45317261905" y="210.93023255814" width="20.15775" height="119.06976744186" rx="0" fill="hsl(0, 100%, 45%)"/><rect data-renderer-id="rect" x="425.45317261905" y="196.04651162791" width="20.15775" height="14.883720930233" rx="0" fill="hsl(30, 100%, 45%)"/><rect data-renderer-id="rect" x="425.45317261905" y="146.93023255814" width="20.15775" height="49.116279069767" rx="0" fill="hsl(60, 100%, 45%)"/><rect data-renderer-id="rect" x="452.33017261905" y="210.93023255814" width="20.15775" height="119.06976744186" rx="0" fill="hsl(90, 100%, 45%)"/><rect data-renderer-id="rect" x="452.33017261905" y="196.04651162791" width="20.15775" height="14.883720930233" rx="0" fill="hsl(120, 100%, 45%)"/><rect data-renderer-id="rect" x="452.33017261905" y="146.93023255814" width="20.15775" height="49.116279069767" rx="0" fill="hsl(150, 100%, 45%)"/><rect data-renderer-id="rect" x="479.20717261905" y="210.93023255814" width="20.15775" height="119.06976744186" rx="0" fill="hsl(180, 100%, 45%)"/><rect data-renderer-id="rect" x="479.20717261905" y="196.04651162791" width="20.15775" height="14.883720930233" rx="0" fill="hsl(210, 100%, 45%)"/><rect data-renderer-id="rect" x="479.20717261905" y="146.93023255814" width="20.15775" height="49.116279069767" rx="0" fill="hsl(240, 100%, 45%)"/><rect data-renderer-id="rect" x="561.50483928571" y="196.04651162791" width="20.15775" height="133.95348837209" rx="0" fill="hsl(0, 100%, 45%)"/><rect data-renderer-id="rect" x="561.50483928571" y="17.441860465116" width="20.15775" height="178.60465116279" rx="0" fill="hsl(30, 100%, 45%)"/><rect data-renderer-id="rect" x="561.50483928571" y="10" width="20.15775" height="7.4418604651163" rx="0" fill="hsl(60, 100%, 45%)"/><rect data-renderer-id="rect" x="588.38183928571" y="196.04651162791" width="20.15775" height="133.95348837209" rx="0" fill="hsl(90, 100%, 45%)"/><rect data-renderer-id="rect" x="588.38183928571" y="17.441860465116" width="20.15775" height="178.60465116279" rx="0" fill="hsl(120, 100%, 45%)"/><rect data-renderer-id="rect" x="588.38183928571" y="10" width="20.15775" height="7.4418604651163" rx="0" fill="hsl(150, 100%, 45%)"/><rect data-renderer-id="rect" x="615.25883928571" y="196.04651162791" width="20.15775" height="133.95348837209" rx="0" fill="hsl(180, 100%, 45%)"/><rect data-renderer-id="rect" x="615.25883928571" y="17.441860465116" width="20.15775" height="178.60465116279" rx="0" fill="hsl(210, 100%, 45%)"/><rect data-renderer-id="rect" x="615.25883928571" y="10" width="20.15775" height="7.4418604651163" rx="0" fill="hsl(240, 100%, 45%)"/><rect data-renderer-id="rect" x="697.55650595238" y="300.23255813953" width="20.15775" height="29.767441860465" rx="0" fill="hsl(0, 100%, 45%)"/><rect data-renderer-id="rect" x="697.55650595238" y="291.3023255814" width="20.15775" height="8.9302325581396" rx="0" fill="hsl(30, 100%, 45%)"/><rect data-renderer-id="rect" x="697.55650595238" y="276.41860465116" width="20.15775" height="14.883720930233" rx="0" fill="hsl(60, 100%, 45%)"/><rect data-renderer-id="rect" x="724.43350595238" y="300.23255813953" width="20.15775" height="29.767441860465" rx="0" fill="hsl(90, 100%, 45%)"/><rect data-renderer-id="rect" x="724.43350595238" y="291.3023255814" width="20.15775" height="8.9302325581396" rx="0" fill="hsl(120, 100%, 45%)"/><rect data-renderer-id="rect" x="724.43350595238" y="276.41860465116" width="20.15775" height="14.883720930233" rx="0" fill="hsl(150, 100%, 45%)"/><rect data-renderer-id="rect" x="751.31050595238" y="300.23255813953" width="20.15775" height="29.767441860465" rx="0" fill="hsl(180, 100%, 45%)"/><rect data-renderer-id="rect" x="751.31050595238" y="291.3023255814" width="20.15775" height="8.9302325581396" rx="0" fill="hsl(210, 100%, 45%)"/><rect data-renderer-id="rect" x="751.31050595238" y="276.41860465116" width="20.15775" height="14.883720930233" rx="0" fill="hsl(240, 100%, 45%)"/></g><g data-renderer-id="series-data2"><path data-renderer-id="path" stroke="black" stroke-width="1"/><path data-renderer-id="path" d="M 190.30571428571,324.01869158879 L 326.35738095238,316.54205607477 L 462.40904761905,211.8691588785 L 598.46071428571,330 L 734.51238095238,316.54205607477 " fill="none" stroke="#333" stroke-width="3"/><circle data-value-x-label="0" data-value-x="0" data-value-y="5" data-value-y-label="5.00" data-renderer-id="circle" cx="190.30571428571" cy="324.01869158879" r="5" fill="#333"/><circle data-value-x-label="1" data-value-x="1" data-value-y="10" data-value-y-label="10.00" data-renderer-id="circle" cx="326.35738095238" cy="316.54205607477" r="5" fill="#333"/><circle data-value-x-label="2" data-value-x="2" data-value-y="80" data-value-y-label="80.00" data-renderer-id="circle" cx="462.40904761905" cy="211.8691588785" r="5" fill="#333"/><circle data-value-x-label="3" data-value-x="3" data-value-y="1" data-value-y-label="1.00" data-renderer-id="circle" cx="598.46071428571" cy="330" r="5" fill="#333"/><circle data-value-x-label="4" data-value-x="4" data-value-y="10" data-value-y-label="10.00" data-renderer-id="circle" cx="734.51238095238" cy="316.54205607477" r="5" fill="#333"/></g></g><g data-renderer-id="labels"></g></g></svg>