<svg id="php-charts-pie-chart-basic" xmlns="http://www.w3.org/2000/svg" width="700" height="400" viewBox="0 0 700 400" class="php-svg-charts"><g data-renderer-id="background"><rect data-renderer-id="rect" x="0" y="0" width="100%" height="100%" fill="white"/></g>
<g data-renderer-id="pies-pie"><g data-renderer-id="shadow"><path transform="translate(4,4)" data-renderer-id="path" d="M 517.32050807569,210 L 653.32050807569,210 A 136,136 0 0,1 585.32050807569,327.77945491468 Z" fill="black" fill-opacity="0.3"/><path transform="translate(4,4)" data-renderer-id="path" d="M 500,200 L 568,317.77945491468 A 136,136 0 0,1 364,200 Z" fill="black" fill-opacity="0.3"/><path transform="translate(4,4)" data-renderer-id="path" d="M 500,200 L 364,200 A 136,136 0 0,1 636,200 Z" fill="black" fill-opacity="0.3"/></g><g data-renderer-id="pie"><path data-renderer-id="path" d="M 517.32050807569,210 L 653.32050807569,210 A 136,136 0 0,1 585.32050807569,327.77945491468 Z" fill="red" stroke="white" stroke-width="2"/><path data-renderer-id="path" d="M 500,200 L 568,317.77945491468 A 136,136 0 0,1 364,200 Z" fill="blue" stroke="white" stroke-width="2"/><path data-renderer-id="path" d="M 500,200 L 364,200 A 136,136 0 0,1 636,200 Z" fill="yellow" stroke="white" stroke-width="2"/></g><g data-renderer-id="annotations"><g data-renderer-id="textrect"><rect data-renderer-id="rect" x="639.43085397331" y="278.225" width="38.45" height="25" rx="0" fill="white"/><text x="644.43085397331" y="296.225" text-rendering="optimizeLegibility" dominant-baseline="alphabetic" alignment-baseline="auto" fill="black" font-family="arial" font-size="14">20%</text></g><g data-renderer-id="textrect"><rect data-renderer-id="rect" x="399.175" y="327.96034589762" width="38.45" height="25" rx="0" fill="white"/><text x="404.175" y="345.96034589762" text-rendering="optimizeLegibility" dominant-baseline="alphabetic" alignment-baseline="auto" fill="black" font-family="arial" font-size="14">30%</text></g><g data-renderer-id="textrect"><rect data-renderer-id="rect" x="480.775" y="23.425" width="38.45" height="25" rx="0" fill="white"/><text x="485.775" y="41.425" text-rendering="optimizeLegibility" dominant-baseline="alphabetic" alignment-baseline="auto" fill="black" font-family="arial" font-size="14">50%</text></g></g></g>
<g data-renderer-id="legend"><g data-renderer-id="textrect"><rect data-renderer-id="rect" x="10" y="11" width="70.89" height="25" rx="0" fill="transparent"/><text x="15" y="29" text-rendering="optimizeLegibility" dominant-baseline="alphabetic" alignment-baseline="auto" fill="black" font-family="arial" font-size="14"><tspan fill="red">⦿</tspan> <tspan>Tongue</tspan></text></g><g data-renderer-id="textrect"><rect data-renderer-id="rect" x="10" y="36" width="48.89" height="25" rx="0" fill="transparent"/><text x="15" y="54" text-rendering="optimizeLegibility" dominant-baseline="alphabetic" alignment-baseline="auto" fill="black" font-family="arial" font-size="14"><tspan fill="blue">⦿</tspan> <tspan>Jaw</tspan></text></g><g data-renderer-id="textrect"><rect data-renderer-id="rect" x="10" y="61" width="56.02" height="25" rx="0" fill="transparent"/><text x="15" y="79" text-rendering="optimizeLegibility" dominant-baseline="alphabetic" alignment-baseline="auto" fill="black" font-family="arial" font-size="14"><tspan fill="yellow">⦿</tspan> <tspan>Head</tspan></text></g></g></svg>