<svg id="php-charts-test-pie-chart-single-value" xmlns="http://www.w3.org/2000/svg" width="700" height="400" viewBox="0 0 700 400" class="php-svg-charts"><g data-renderer-id="background"><rect data-renderer-id="rect" x="0" y="0" width="100%" height="100%" fill="white"/></g>
<g data-renderer-id="pies-pie"><g data-renderer-id="shadow"><path transform="translate(4,4)" data-renderer-id="path" d="M 500,200 m -152,0 a 152,152 0 1,0 304,0 a 152,152 0 1,0 -304,0 Z" fill="black" fill-opacity="0.3"/></g><g data-renderer-id="pie"><path data-renderer-id="path" d="M 500,200 m -152,0 a 152,152 0 1,0 304,0 a 152,152 0 1,0 -304,0 Z" fill="blue" stroke="white" stroke-width="2"/></g><g data-renderer-id="annotations"><g data-renderer-id="textrect"><rect data-renderer-id="rect" x="294.475" y="186.625" width="46.25" height="25" rx="0" fill="white"/><text x="299.475" y="204.625" text-rendering="optimizeLegibility" dominant-baseline="alphabetic" alignment-baseline="auto" fill="black" font-family="arial" font-size="14">100%</text></g></g></g>
<g data-renderer-id="legend"><g data-renderer-id="textrect"><rect data-renderer-id="rect" x="10" y="11" width="70.89" height="25" rx="0" fill="transparent"/><text x="15" y="29" text-rendering="optimizeLegibility" dominant-baseline="alphabetic" alignment-baseline="auto" fill="black" font-family="arial" font-size="14"><tspan fill="red">⦿</tspan> <tspan>Tongue</tspan></text></g><g data-renderer-id="textrect"><rect data-renderer-id="rect" x="10" y="36" width="48.89" height="25" rx="0" fill="transparent"/><text x="15" y="54" text-rendering="optimizeLegibility" dominant-baseline="alphabetic" alignment-baseline="auto" fill="black" font-family="arial" font-size="14"><tspan fill="blue">⦿</tspan> <tspan>Jaw</tspan></text></g><g data-renderer-id="textrect"><rect data-renderer-id="rect" x="10" y="61" width="56.02" height="25" rx="0" fill="transparent"/><text x="15" y="79" text-rendering="optimizeLegibility" dominant-baseline="alphabetic" alignment-baseline="auto" fill="black" font-family="arial" font-size="14"><tspan fill="yellow">⦿</tspan> <tspan>Head</tspan></text></g></g></svg>